#!OML:ASF E:\emotionWalksFemale\Project 1\Capture day 1\Session 1\Female1.ASF
:FULLY-SPECIFIED
:DEGREES
425
root 9.45745 15.6142 10.2384 10.5614 -80.4621 -10.0634
lowerback 6.89949 1.32394 1.82724
upperback -5.05814 1.95823 0.2095
thorax -9.18234 0.825593 -1.08794
lowerneck -5.34782 -5.5793 -8.89309
upperneck 9.36139 -7.2676 5.1799
head 4.18831 -3.66679 2.61814
rclavicle 5.49702e-014 5.61567e-015
rhumerus -48.905 12.1447 -94.9245
rradius 36.5054
rwrist 21.7438
rhand -1.26803 -55.4209
rfingers 7.12502
rthumb 24.3753 -443.891
lclavicle 5.49702e-014 5.61567e-015
lhumerus -47.4465 0.947342 86.4404
lradius 33.9716
lwrist -16.726
lhand 0.553204 -35.248
lfingers 7.12502
lthumb 26.1201 -7.02447
rfemur -0.478743 21.0281 28.9852
rtibia 15.3846
rfoot -14.406 -28.1258
rtoes 7.34216
lfemur -4.29632 -22.7895 -25.2944
ltibia 22.2948
lfoot -20.5495 26.094
ltoes -25.5562
426
root 9.457 15.6139 10.2374 9.7051 -80.3405 -9.20677
lowerback 6.90739 1.27188 1.6914
upperback -5.05441 1.87354 0.208861
thorax -9.18941 0.793118 -1.00038
lowerneck -5.43445 -5.52173 -8.68735
upperneck 9.56008 -7.17395 4.84859
head 4.23738 -3.63056 2.48588
rclavicle 1.34677e-014 4.42296e-015
rhumerus -48.8881 12.324 -95.0236
rradius 36.4268
rwrist 21.7026
rhand -1.40621 -55.3799
rfingers 7.12502
rthumb 24.2428 -443.867
lclavicle 1.34677e-014 4.42296e-015
lhumerus -47.3958 0.959133 86.5277
lradius 33.9826
lwrist -16.877
lhand 0.598263 -35.239
lfingers 7.12502
lthumb 26.1633 -7.02184
rfemur -0.447435 20.9695 28.8646
rtibia 15.4047
rfoot -14.7197 -28.1116
rtoes 7.90654
lfemur -4.29735 -22.9433 -25.4171
ltibia 22.2994
lfoot -20.6609 25.9939
ltoes -24.9394
427
root 9.45663 15.6135 10.2342 9.22097 -80.246 -8.71863
lowerback 6.92066 1.2399 1.60855
upperback -5.05247 1.82124 0.201468
thorax -9.19869 0.772698 -0.954523
lowerneck -5.50456 -5.47005 -8.47843
upperneck 9.73476 -7.09186 4.5457
head 4.27857 -3.59885 2.36177
rclavicle 6.50399e-014 6.21202e-015
rhumerus -48.8305 12.4098 -95.0822
rradius 36.2985
rwrist 21.7663
rhand -1.19255 -54.9907
rfingers 7.12502
rthumb 24.4476 -443.451
lclavicle 6.50399e-014 6.21202e-015
lhumerus -47.2527 0.855227 86.614
lradius 33.8506
lwrist -16.9911
lhand 0.804885 -35.4118
lfingers 7.12502
lthumb 26.3611 -7.22407
rfemur -0.428761 20.9866 28.8259
rtibia 15.3879
rfoot -14.726 -28.2609
rtoes 7.85552
lfemur -4.3026 -23.0825 -25.4813
ltibia 22.3253
lfoot -20.8645 25.8877
ltoes -24.1216
428
root 9.45481 15.6135 10.2304 9.65205 -80.136 -9.14884
lowerback 6.88774 1.2456 1.72937
upperback -5.04325 1.84196 0.208065
thorax -9.16529 0.775784 -1.01723
lowerneck -5.54964 -5.46176 -8.39738
upperneck 9.91952 -7.07039 4.35113
head 4.33149 -3.59691 2.28753
rclavicle -2.29037e-014 -2.18663e-015
rhumerus -48.923 12.5888 -95.2302
rradius 36.3921
rwrist 21.665
rhand -0.939193 -54.8391
rfingers 7.12502
rthumb 24.6905 -443.266
lclavicle -2.29037e-014 -2.18663e-015
lhumerus -47.0411 0.551944 86.7774
lradius 33.7312
lwrist -17.0268
lhand 1.07059 -35.4688
lfingers 7.12502
lthumb 26.6154 -7.31946
rfemur -0.413513 20.9909 28.9621
rtibia 15.3673
rfoot -14.3764 -28.4619
rtoes 7.06686
lfemur -4.32496 -23.0794 -25.3529
ltibia 22.3564
lfoot -21.1313 25.5883
ltoes -22.9036
429
root 9.45219 15.6124 10.2265 9.84707 -80.0385 -9.3848
lowerback 6.8591 1.25496 1.7874
upperback -5.00985 1.86176 0.226071
thorax -9.11016 0.783551 -1.03227
lowerneck -5.54357 -5.4429 -8.35888
upperneck 10.0407 -7.03974 4.22188
head 4.35977 -3.58883 2.24273
rclavicle -1.49523e-014 -1.93815e-015
rhumerus -49.1159 12.8625 -95.3985
rradius 36.6186
rwrist 21.4365
rhand -0.976322 -54.8983
rfingers 7.12502
rthumb 24.6549 -443.33
lclavicle -1.49523e-014 -1.93815e-015
lhumerus -46.8549 0.217994 87.0003
lradius 33.7418
lwrist -17.0158
lhand 1.0875 -35.3143
lfingers 7.12502
lthumb 26.6316 -7.16741
rfemur -0.304463 21.0455 29.071
rtibia 15.3074
rfoot -14.4055 -28.5488
rtoes 7.17276
lfemur -4.2993 -23.1109 -25.2949
ltibia 22.4079
lfoot -21.2538 25.461
ltoes -22.3383
430
root 9.45053 15.6117 10.2221 9.55417 -79.9338 -9.08755
lowerback 6.8234 1.21767 1.69684
upperback -5.00386 1.80234 0.244486
thorax -9.08735 0.76143 -0.9524
lowerneck -5.54657 -5.36153 -8.32049
upperneck 10.1642 -6.93025 4.1496
head 4.3872 -3.53912 2.22054
rclavicle 5.26096e-014 1.51573e-014
rhumerus -49.2066 13.0122 -95.484
rradius 36.6893
rwrist 21.4064
rhand -1.02041 -55.0735
rfingers 7.12502
rthumb 24.6126 -443.511
lclavicle 5.26096e-014 1.51573e-014
lhumerus -46.7337 0.205142 87.0999
lradius 33.747
lwrist -17.1196
lhand 0.932755 -35.2798
lfingers 7.12502
lthumb 26.4835 -7.11053
rfemur -0.231683 21.216 29.0812
rtibia 15.245
rfoot -14.7627 -28.6579
rtoes 8.18868
lfemur -4.34286 -23.1062 -25.3119
ltibia 22.4708
lfoot -21.1282 25.5235
ltoes -23.3031
431
root 9.44897 15.6102 10.2189 9.19832 -79.7967 -8.74709
lowerback 6.8283 1.20274 1.70439
upperback -4.99722 1.78127 0.218576
thorax -9.08248 0.749972 -0.981122
lowerneck -5.56983 -5.34728 -8.46012
upperneck 10.3093 -6.91758 4.29504
head 4.4446 -3.53244 2.28609
rclavicle -1.74558e-015 5.46658e-016
rhumerus -49.1495 12.8085 -95.4036
rradius 36.5933
rwrist 21.6814
rhand -0.777863 -55.194
rfingers 7.12502
rthumb 24.8451 -443.6
lclavicle -1.74558e-015 5.46658e-016
lhumerus -46.6212 0.185685 87.1464
lradius 33.7427
lwrist -17.2965
lhand 1.02598 -35.4076
lfingers 7.12502
lthumb 26.5727 -7.25178
rfemur -0.198177 21.3036 29.0945
rtibia 15.2542
rfoot -14.8174 -28.887
rtoes 8.51781
lfemur -4.37035 -22.9657 -25.3329
ltibia 22.5007
lfoot -20.7909 25.6063
ltoes -25.4627
432
root 9.4471 15.6057 10.2179 8.8591 -79.6538 -8.52645
lowerback 6.91128 1.24084 1.83501
upperback -4.95085 1.84514 0.165839
thorax -9.07354 0.771796 -1.12107
lowerneck -5.56566 -5.40551 -8.66359
upperneck 10.4335 -7.00054 4.45822
head 4.50042 -3.57432 2.36162
rclavicle -4.30493e-015 2.48481e-016
rhumerus -49.0747 12.456 -95.223
rradius 36.4778
rwrist 22.0142
rhand -0.436826 -55.1966
rfingers 7.12502
rthumb 25.1719 -443.557
lclavicle -4.30493e-015 2.48481e-016
lhumerus -46.5011 -0.181065 87.3245
lradius 33.8205
lwrist -17.1944
lhand 1.27392 -35.3822
lfingers 7.12502
lthumb 26.81 -7.26257
rfemur -0.00526276 21.8362 29.2329
rtibia 15.2766
rfoot -14.8853 -29.6088
rtoes 8.8293
lfemur -4.24307 -22.935 -25.4073
ltibia 22.4835
lfoot -20.3572 25.8056
ltoes -27.6021
433
root 9.44796 15.6042 10.2141 8.63403 -79.4703 -8.32255
lowerback 6.93838 1.26304 1.85629
upperback -4.9369 1.87688 0.148449
thorax -9.07211 0.785574 -1.15658
lowerneck -5.57881 -5.43263 -8.65151
upperneck 10.5582 -7.03057 4.35746
head 4.53905 -3.59551 2.32495
rclavicle 1.25234e-014 4.02539e-015
rhumerus -49.0913 12.3997 -95.1865
rradius 36.4753
rwrist 22.0608
rhand -0.170853 -55.2323
rfingers 7.12502
rthumb 25.4267 -443.557
lclavicle 1.25234e-014 4.02539e-015
lhumerus -46.3757 -0.554602 87.5255
lradius 33.8943
lwrist -17.1321
lhand 1.34842 -35.5665
lfingers 7.12502
lthumb 26.8813 -7.45778
rfemur 0.0955208 22.341 29.3402
rtibia 15.2815
rfoot -15.1953 -30.1601
rtoes 9.58498
lfemur -4.24926 -22.9697 -25.398
ltibia 22.483
lfoot -20.0636 25.8045
ltoes -28.4711
434
root 9.45387 15.6124 10.2065 8.5401 -79.1564 -8.03986
lowerback 6.9095 1.239 1.78241
upperback -5.02309 1.83707 0.169295
thorax -9.1534 0.769335 -1.08773
lowerneck -5.58328 -5.4524 -8.62416
upperneck 10.6913 -7.04739 4.20609
head 4.5757 -3.6127 2.2713
rclavicle 1.09953e-015 2.48481e-015
rhumerus -49.1639 12.5216 -95.2024
rradius 36.4932
rwrist 21.9395
rhand 0.0234398 -55.1524
rfingers 7.12502
rthumb 25.6128 -443.45
lclavicle 1.09953e-015 2.48481e-015
lhumerus -46.2353 -0.729903 87.7331
lradius 33.8653
lwrist -17.3576
lhand 1.27685 -35.7547
lfingers 7.12502
lthumb 26.8128 -7.63549
rfemur -0.276206 20.7364 29.0666
rtibia 15.2721
rfoot -14.9815 -28.9188
rtoes 8.67538
lfemur -4.55769 -22.8725 -25.2065
ltibia 22.4859
lfoot -19.851 25.3553
ltoes -28.6745
